<svg version="1.1" xmlns="http://www.w3.org/2000/svg" xmlns:xlink="http://www.w3.org/1999/xlink" width="512.000000pt" height="512.000000pt" viewBox="0,0,256,256"><g fill="#ffffff" fill-rule="nonzero" stroke="none" stroke-width="1" stroke-linecap="butt" stroke-linejoin="miter" stroke-miterlimit="10" stroke-dasharray="" stroke-dashoffset="0" font-family="none" font-weight="none" font-size="none" text-anchor="none" style="mix-blend-mode: normal"><g transform="translate(0.04884,0.0886) scale(0.5,0.5)"><g transform="translate(0,512) scale(0.1,-0.1)"><path d="M3978,5090c-307,-30 -324,-35 -354,-91c-31,-61 -24,-79 152,-359c91,-146 177,-275 190,-287c50,-46 136,-22 164,46l12,31l60,-48c173,-135 320,-365 379,-592c11,-44 26,-135 34,-202c20,-183 41,-201 240,-213c144,-8 180,0 224,50c41,47 46,89 32,233c-45,460 -283,883 -651,1158c-49,37 -90,69 -90,71c0,2 11,26 25,53c38,76 29,137 -26,166c-35,18 -44,17 -391,-16zM4225,4943c-4,-10 -13,-35 -19,-56c-15,-55 3,-80 109,-151c155,-105 327,-285 432,-451c117,-185 200,-444 219,-677l7,-88h-34c-19,0 -64,3 -101,6l-67,7l-6,66c-36,383 -230,732 -521,940c-105,74 -138,79 -190,27l-33,-33l-120,191c-76,121 -116,192 -108,194c21,4 367,39 406,41c28,1 32,-2 26,-16z"></path><path d="M2199,4676c-83,-30 -131,-73 -175,-156c-15,-28 -20,-65 -24,-179l-5,-144l-90,-38c-49,-20 -124,-56 -165,-79l-74,-41l-91,95c-99,105 -135,126 -217,126c-74,0 -131,-31 -233,-124c-123,-113 -152,-181 -121,-288c12,-44 33,-75 96,-146c44,-50 80,-92 80,-94c0,-2 -29,-48 -64,-101c-521,-790 -305,-1853 484,-2382c582,-390 1334,-390 1920,0c499,332 797,919 766,1512c-8,146 -29,275 -51,309c-29,45 -108,29 -127,-26c-3,-9 1,-52 9,-95c20,-104 23,-403 5,-505c-61,-349 -213,-644 -458,-885c-418,-414 -1033,-558 -1598,-374c-125,41 -312,136 -425,217c-445,317 -703,874 -653,1409c21,229 64,381 162,578c298,599 952,948 1610,861c198,-27 349,-74 530,-167c307,-158 533,-393 692,-717c45,-92 66,-126 85,-133c57,-21 110,23 99,83c-9,47 -102,229 -169,329c-31,47 -57,89 -57,93c0,4 31,42 69,84c80,90 100,125 108,191c10,89 -15,138 -125,241c-119,111 -146,125 -237,125c-95,0 -129,-19 -224,-125l-79,-88l-43,26c-24,14 -98,49 -164,78l-120,52l-5,143c-4,123 -8,150 -27,185c-34,63 -66,97 -125,129l-53,30l-340,2c-261,2 -348,0 -376,-11zM2899,4522c55,-30 71,-71 71,-185c0,-89 -2,-98 -17,-93c-10,3 -61,13 -113,23c-176,32 -534,20 -672,-23c-16,-5 -18,4 -18,98c0,109 8,134 54,168c37,28 50,29 356,29c277,1 308,-1 339,-17zM1462,4038c37,-40 68,-77 68,-83c0,-5 -17,-22 -38,-36c-20,-15 -77,-64 -125,-110l-89,-82l-54,59c-110,120 -109,142 13,249c117,102 132,102 225,3zM3870,4040c44,-39 85,-80 91,-92c19,-35 2,-77 -62,-149l-62,-69l-83,80c-46,43 -104,93 -129,111c-52,37 -52,36 33,127c52,54 64,62 96,62c30,0 48,-11 116,-70z"></path><path d="M2380,3665c-251,-42 -501,-181 -662,-368c-483,-562 -314,-1408 349,-1741c548,-274 1217,-46 1497,511c274,548 45,1218 -511,1497c-202,101 -452,139 -673,101zM2792,3501c354,-93 612,-350 710,-707c28,-105 31,-343 5,-446c-76,-306 -284,-557 -557,-675c-141,-61 -218,-76 -385,-77c-218,0 -361,41 -534,155c-266,175 -422,447 -438,764c-24,483 314,909 796,1000c104,20 301,13 403,-14z"></path><path d="M2370,3310c-95,-25 -218,-86 -292,-145c-125,-98 -228,-259 -268,-419c-37,-146 -21,-216 49,-216c48,0 71,27 80,95c39,271 215,474 467,539c77,20 219,20 302,1c197,-47 371,-203 440,-398c34,-94 41,-250 18,-351c-48,-202 -206,-377 -406,-447c-88,-30 -248,-37 -344,-15c-173,41 -325,160 -408,322c-53,102 -80,124 -126,102c-14,-7 -33,-25 -41,-39c-13,-24 -13,-31 2,-70c33,-86 93,-175 172,-254c155,-155 326,-224 551,-225c427,-1 764,339 764,770c0,362 -232,660 -584,750c-106,27 -271,27 -376,0z"></path><path d="M2501,3004c-12,-15 -21,-37 -21,-50c0,-14 -6,-24 -15,-24c-22,0 -84,-59 -106,-101c-12,-25 -19,-59 -19,-95c0,-103 53,-160 205,-220c39,-15 78,-34 88,-42c26,-23 22,-75 -9,-111c-23,-28 -32,-31 -80,-31c-35,0 -69,7 -94,20c-51,26 -82,25 -108,-3c-54,-58 -2,-134 111,-161c17,-4 27,-13 27,-25c0,-10 9,-30 21,-45c41,-52 129,-22 129,45c0,20 7,30 30,39c41,17 99,76 121,124c24,53 24,139 0,191c-27,59 -67,90 -170,135c-112,47 -121,54 -121,91c0,53 60,70 182,54c53,-7 59,-5 82,18c54,54 17,121 -73,133c-41,5 -51,10 -51,25c0,57 -92,80 -129,33z"></path><path d="M100,1739c-64,-27 -100,-85 -100,-163c0,-213 80,-514 192,-726c51,-97 73,-120 114,-120c34,0 74,37 74,68c0,8 -29,74 -65,146c-97,197 -145,366 -161,569l-7,87h34c19,0 64,-3 101,-6l66,-7l7,-71c36,-384 234,-734 536,-945c90,-64 125,-67 175,-17l33,33l120,-191c66,-104 119,-191 118,-193c-5,-5 -439,-44 -443,-40c-2,2 3,20 11,40c32,78 19,102 -100,182c-47,31 -133,101 -190,156c-107,102 -130,113 -176,88c-28,-15 -41,-53 -28,-86c13,-36 142,-159 252,-240c48,-36 87,-67 87,-69c0,-3 -11,-27 -25,-54c-29,-56 -31,-89 -10,-129c28,-55 42,-56 393,-23c344,33 358,36 388,93c31,61 24,79 -152,359c-91,146 -177,275 -190,288c-50,45 -136,21 -164,-47l-12,-31l-60,48c-173,135 -320,365 -379,592c-11,44 -26,135 -34,202c-20,185 -42,203 -250,212c-82,4 -139,2 -155,-5z"></path></g></g></g></svg>