<svg version="1.1" xmlns="http://www.w3.org/2000/svg" xmlns:xlink="http://www.w3.org/1999/xlink" width="512.000000pt" height="512.000000pt" viewBox="0,0,256,256"><g fill="#ffffff" fill-rule="nonzero" stroke="none" stroke-width="1" stroke-linecap="butt" stroke-linejoin="miter" stroke-miterlimit="10" stroke-dasharray="" stroke-dashoffset="0" font-family="none" font-weight="none" font-size="none" text-anchor="none" style="mix-blend-mode: normal"><g transform="translate(0,-0.07373) scale(0.5,0.5)"><g transform="translate(0,512) scale(0.1,-0.1)"><path d="M1371,5030c-195,-27 -398,-142 -521,-293c-67,-83 -134,-214 -161,-317c-45,-169 -25,-385 50,-547c83,-175 242,-331 419,-410c193,-85 460,-85 718,2c190,63 409,190 588,339c43,36 83,66 88,66c5,0 30,-18 56,-40c208,-179 495,-333 740,-397c142,-37 353,-43 474,-14c156,37 260,95 382,210c167,160 248,351 249,586c0,148 -17,224 -83,360c-86,176 -198,288 -375,375c-55,27 -131,57 -170,66c-94,23 -301,23 -410,0c-259,-55 -528,-189 -777,-388l-87,-69l-88,71c-242,196 -481,321 -719,375c-120,27 -280,38 -373,25zM1715,4858c218,-51 441,-169 664,-353c34,-27 61,-53 61,-56c0,-14 -269,-267 -340,-320c-219,-165 -426,-249 -610,-249c-94,0 -170,29 -236,92c-185,175 -122,477 118,564c60,22 194,20 291,-5c81,-21 216,-80 299,-131c70,-43 118,-37 139,17c17,46 -5,78 -92,128c-199,118 -421,175 -589,154c-368,-46 -550,-480 -325,-776c71,-94 168,-157 284,-183c129,-30 341,7 520,91c191,89 320,188 581,444c218,214 280,266 430,365c244,159 483,241 710,243c175,2 317,-46 439,-146c160,-133 245,-314 245,-522c-1,-197 -72,-358 -219,-493c-314,-287 -836,-211 -1349,197l-78,63l113,115c289,290 592,453 849,454c95,1 146,-14 215,-61c125,-86 174,-266 110,-408c-36,-81 -110,-151 -190,-181c-52,-20 -73,-22 -155,-18c-145,8 -272,49 -434,142c-44,25 -92,45 -108,45c-53,0 -85,-60 -58,-110c23,-42 268,-163 409,-201c99,-26 260,-36 332,-19c377,88 511,549 240,821c-185,184 -469,191 -813,18c-197,-98 -330,-202 -575,-447c-339,-338 -600,-500 -904,-562c-265,-54 -488,-1 -659,157c-406,376 -212,1043 335,1149c89,17 230,10 350,-18z"></path><path d="M272,4847c-24,-25 -28,-57 -12,-88c13,-24 200,-119 235,-119c62,0 89,89 39,129c-39,31 -190,101 -217,101c-13,0 -33,-10 -45,-23z"></path><path d="M4685,4823c-112,-56 -125,-68 -125,-109c0,-39 32,-74 67,-74c33,0 220,96 233,119c26,49 -9,112 -61,110c-13,0 -64,-21 -114,-46z"></path><path d="M21,4264c-28,-36 -26,-69 4,-100c25,-25 26,-25 180,-22c169,3 179,7 191,65c5,26 1,37 -19,57c-26,26 -28,26 -181,26h-155z"></path><path d="M4743,4264c-20,-20 -24,-31 -19,-57c12,-58 22,-62 191,-65c154,-3 155,-3 180,22c30,31 32,64 4,100l-20,26h-155c-153,0 -155,0 -181,-26z"></path><path d="M375,3748c-99,-50 -125,-73 -125,-110c0,-33 39,-78 68,-78c22,0 199,85 225,107c21,20 22,71 1,101c-24,34 -75,28 -169,-20z"></path><path d="M4577,3772c-22,-25 -22,-85 1,-105c25,-22 202,-107 224,-107c29,0 68,45 68,78c0,38 -26,61 -127,111c-91,45 -140,52 -166,23z"></path><path d="M571,3319c-24,-5 -54,-16 -68,-24c-30,-20 -61,-70 -68,-110c-7,-37 249,-1004 295,-1115c38,-93 91,-189 139,-255c20,-27 172,-211 339,-409c335,-395 360,-427 398,-510c44,-96 53,-183 54,-493v-282l26,-20c36,-28 60,-26 95,8l29,29v264c0,145 -5,301 -11,348c-12,100 -60,234 -111,310c-20,30 -170,213 -334,405c-327,386 -364,432 -417,520c-62,105 -94,202 -222,680c-68,255 -126,473 -130,484c-5,17 0,21 29,27c62,11 131,-13 186,-65c45,-42 61,-73 211,-404c98,-217 170,-364 183,-372c11,-8 31,-15 44,-15c28,0 72,42 72,69c0,36 -334,757 -372,803c-45,54 -125,103 -203,123c-65,16 -97,17 -164,4z"></path><path d="M4383,3315c-110,-31 -199,-98 -243,-185c-60,-118 -330,-724 -330,-741c0,-27 44,-69 72,-69c13,0 33,7 44,15c13,8 85,155 183,372c150,331 166,362 211,404c55,52 124,76 186,65c29,-6 34,-10 29,-27c-4,-11 -62,-229 -130,-484c-128,-478 -160,-575 -222,-680c-53,-88 -90,-134 -417,-520c-164,-192 -314,-375 -334,-405c-51,-76 -99,-210 -111,-310c-6,-47 -11,-203 -11,-348v-264l30,-30c25,-24 36,-29 58,-23c61,15 60,6 64,358c5,362 10,390 85,515c21,34 178,227 348,428c362,429 391,466 455,599c63,130 67,141 216,702c116,435 125,479 115,513c-15,50 -47,89 -86,106c-52,21 -153,26 -212,9z"></path><path d="M1466,2174c-139,-44 -217,-146 -187,-242c14,-46 392,-503 427,-516c51,-20 115,34 99,84c-3,11 -91,122 -195,246c-208,250 -203,240 -125,275c51,24 109,24 160,0c26,-12 133,-113 306,-287c242,-244 270,-276 303,-344c64,-131 66,-154 66,-735c0,-565 -1,-555 55,-569c29,-7 79,15 89,39c3,9 6,253 6,541c0,573 -3,610 -59,745c-49,118 -99,179 -370,450c-224,224 -275,271 -325,294c-74,34 -178,42 -250,19z"></path><path d="M3474,2181c-89,-22 -127,-52 -395,-320c-271,-272 -320,-332 -370,-450c-56,-135 -59,-172 -59,-745c0,-288 3,-532 6,-541c10,-24 60,-46 89,-39c56,14 55,4 55,569c0,579 2,601 66,735c32,69 56,96 302,344c173,174 281,275 307,287c51,24 109,24 160,0c78,-35 83,-25 -125,-275c-104,-124 -192,-235 -195,-246c-16,-50 48,-104 99,-84c38,14 414,471 427,518c15,54 4,100 -34,142c-78,90 -215,133 -333,105z"></path></g></g></g></svg>