<svg version="1.1" xmlns="http://www.w3.org/2000/svg" xmlns:xlink="http://www.w3.org/1999/xlink" width="512.000000pt" height="512.000000pt" viewBox="0,0,256,256"><g fill="#ffffff" fill-rule="nonzero" stroke="none" stroke-width="1" stroke-linecap="butt" stroke-linejoin="miter" stroke-miterlimit="10" stroke-dasharray="" stroke-dashoffset="0" font-family="none" font-weight="none" font-size="none" text-anchor="none" style="mix-blend-mode: normal"><g transform="translate(0.00111,0.02466) scale(0.5,0.5)"><g transform="translate(0,512) scale(0.1,-0.1)"><path d="M2425,4545c-187,-41 -348,-166 -435,-339c-124,-247 -78,-537 115,-730c121,-122 256,-184 419,-193c292,-16 560,170 649,452c31,99 31,271 0,370c-100,316 -430,510 -748,440zM2675,4385c256,-67 415,-329 350,-578c-45,-173 -178,-307 -350,-352c-250,-65 -513,94 -580,350c-89,342 238,669 580,580z"></path><path d="M2052,3180c-100,-26 -174,-71 -254,-151c-87,-88 -118,-156 -199,-431l-64,-218l-352,-141c-369,-147 -399,-164 -439,-240c-22,-44 -29,-121 -14,-173c15,-56 69,-120 124,-148c76,-40 121,-33 546,90c212,61 397,114 413,117l27,7v-177v-177l-32,6c-143,25 -509,69 -575,68c-294,-2 -530,-260 -510,-557c17,-245 201,-446 444,-487c85,-14 109,-11 648,77c187,30 426,69 530,86c105,17 213,29 240,27c28,-2 326,-48 663,-103c609,-98 614,-99 695,-87c249,36 437,237 454,486c16,240 -138,466 -366,537c-96,30 -198,27 -491,-15c-140,-20 -255,-36 -257,-36c-2,0 -3,79 -3,176v176l28,-7c15,-3 198,-55 407,-115c209,-60 396,-111 417,-115c50,-9 134,17 181,56c132,109 105,320 -51,397c-20,11 -181,76 -357,146l-320,127l-68,227c-78,264 -108,331 -183,411c-112,122 -226,171 -411,179l-123,5v-81v-80l108,-4c79,-4 122,-11 164,-27c67,-26 157,-103 194,-167c15,-25 61,-162 104,-306c44,-143 84,-266 90,-272c6,-6 178,-78 382,-161c316,-127 375,-154 387,-177c19,-34 7,-73 -31,-101l-27,-20l-413,118c-227,65 -433,124 -458,131l-45,13l-110,221c-60,121 -113,220 -118,220c-7,0 -127,-58 -135,-65c-2,-2 49,-107 112,-234l116,-231v-230v-230l-22,-5c-13,-2 -139,-21 -281,-40l-257,-35l-258,35c-141,19 -267,38 -279,40l-23,5v230v230l115,230c63,126 115,231 115,233c0,6 -140,71 -144,66c-2,-2 -53,-103 -114,-224l-110,-220l-455,-128c-446,-126 -455,-129 -486,-113c-50,26 -55,100 -8,130c12,8 182,78 377,156c242,96 360,148 370,162c8,12 49,135 91,273c41,139 87,272 102,297c38,66 127,143 195,169c42,16 85,23 165,27l107,4v79v79l-97,-1c-63,0 -124,-7 -171,-19zM2148,1335c633,-87 909,-129 926,-140c56,-37 58,-128 4,-168c-22,-16 -190,-47 -910,-163c-486,-79 -900,-143 -920,-144c-107,-1 -228,60 -292,147c-42,57 -76,156 -76,222c0,189 153,349 356,370c5,1 416,-55 912,-124zM4024,1422c25,-12 70,-44 100,-72c205,-194 121,-534 -153,-614c-30,-9 -73,-16 -95,-16c-23,0 -214,29 -426,64c-358,58 -382,64 -348,75c132,44 208,197 163,331c-17,51 -82,130 -129,155c-14,8 67,22 335,58c195,26 365,48 379,50c44,4 126,-10 174,-31z"></path><path d="M2480,3120v-80h80h80v80v80h-80h-80z"></path></g></g></g></svg>